<svg width="331" height="30" viewBox="0 0 331 30" fill="none" xmlns="http://www.w3.org/2000/svg">
<path d="M55.9832 14.2C55.9832 12.4667 56.3582 10.925 57.1082 9.575C57.8582 8.20833 58.8999 7.15 60.2332 6.4C61.5832 5.63333 63.1082 5.25 64.8082 5.25C66.8915 5.25 68.6749 5.8 70.1582 6.9C71.6415 8 72.6332 9.5 73.1332 11.4H68.4332C68.0832 10.6667 67.5832 10.1083 66.9332 9.725C66.2999 9.34167 65.5749 9.15 64.7582 9.15C63.4415 9.15 62.3749 9.60833 61.5582 10.525C60.7415 11.4417 60.3332 12.6667 60.3332 14.2C60.3332 15.7333 60.7415 16.9583 61.5582 17.875C62.3749 18.7917 63.4415 19.25 64.7582 19.25C65.5749 19.25 66.2999 19.0583 66.9332 18.675C67.5832 18.2917 68.0832 17.7333 68.4332 17H73.1332C72.6332 18.9 71.6415 20.4 70.1582 21.5C68.6749 22.5833 66.8915 23.125 64.8082 23.125C63.1082 23.125 61.5832 22.75 60.2332 22C58.8999 21.2333 57.8582 20.175 57.1082 18.825C56.3582 17.475 55.9832 15.9333 55.9832 14.2ZM82.1012 23.2C80.7345 23.2 79.5012 22.9083 78.4012 22.325C77.3178 21.7417 76.4595 20.9083 75.8262 19.825C75.2095 18.7417 74.9012 17.475 74.9012 16.025C74.9012 14.5917 75.2178 13.3333 75.8512 12.25C76.4845 11.15 77.3512 10.3083 78.4512 9.725C79.5512 9.14167 80.7845 8.85 82.1512 8.85C83.5178 8.85 84.7512 9.14167 85.8512 9.725C86.9512 10.3083 87.8178 11.15 88.4512 12.25C89.0845 13.3333 89.4012 14.5917 89.4012 16.025C89.4012 17.4583 89.0762 18.725 88.4262 19.825C87.7928 20.9083 86.9178 21.7417 85.8012 22.325C84.7012 22.9083 83.4678 23.2 82.1012 23.2ZM82.1012 19.5C82.9178 19.5 83.6095 19.2 84.1762 18.6C84.7595 18 85.0512 17.1417 85.0512 16.025C85.0512 14.9083 84.7678 14.05 84.2012 13.45C83.6512 12.85 82.9678 12.55 82.1512 12.55C81.3178 12.55 80.6262 12.85 80.0762 13.45C79.5262 14.0333 79.2512 14.8917 79.2512 16.025C79.2512 17.1417 79.5178 18 80.0512 18.6C80.6012 19.2 81.2845 19.5 82.1012 19.5ZM100.169 8.9C101.802 8.9 103.102 9.43333 104.069 10.5C105.052 11.55 105.544 13 105.544 14.85V23H101.294V15.425C101.294 14.4917 101.052 13.7667 100.569 13.25C100.086 12.7333 99.4358 12.475 98.6191 12.475C97.8025 12.475 97.1525 12.7333 96.6691 13.25C96.1858 13.7667 95.9441 14.4917 95.9441 15.425V23H91.6691V9.05H95.9441V10.9C96.3775 10.2833 96.9608 9.8 97.6941 9.45C98.4275 9.08333 99.2525 8.9 100.169 8.9ZM116.29 19.375V23H114.115C112.565 23 111.357 22.625 110.49 21.875C109.623 21.1083 109.19 19.8667 109.19 18.15V12.6H107.49V9.05H109.19V5.65H113.465V9.05H116.265V12.6H113.465V18.2C113.465 18.6167 113.565 18.9167 113.765 19.1C113.965 19.2833 114.298 19.375 114.765 19.375H116.29ZM120.821 7.6C120.071 7.6 119.454 7.38333 118.971 6.95C118.504 6.5 118.271 5.95 118.271 5.3C118.271 4.63333 118.504 4.08333 118.971 3.65C119.454 3.2 120.071 2.975 120.821 2.975C121.554 2.975 122.154 3.2 122.621 3.65C123.104 4.08333 123.346 4.63333 123.346 5.3C123.346 5.95 123.104 6.5 122.621 6.95C122.154 7.38333 121.554 7.6 120.821 7.6ZM122.946 9.05V23H118.671V9.05H122.946ZM134.544 8.9C136.177 8.9 137.477 9.43333 138.444 10.5C139.427 11.55 139.919 13 139.919 14.85V23H135.669V15.425C135.669 14.4917 135.427 13.7667 134.944 13.25C134.461 12.7333 133.811 12.475 132.994 12.475C132.177 12.475 131.527 12.7333 131.044 13.25C130.561 13.7667 130.319 14.4917 130.319 15.425V23H126.044V9.05H130.319V10.9C130.752 10.2833 131.336 9.8 132.069 9.45C132.802 9.08333 133.627 8.9 134.544 8.9ZM156.665 9.05V23H152.39V21.1C151.957 21.7167 151.365 22.2167 150.615 22.6C149.882 22.9667 149.065 23.15 148.165 23.15C147.098 23.15 146.157 22.9167 145.34 22.45C144.523 21.9667 143.89 21.275 143.44 20.375C142.99 19.475 142.765 18.4167 142.765 17.2V9.05H147.015V16.625C147.015 17.5583 147.257 18.2833 147.74 18.8C148.223 19.3167 148.873 19.575 149.69 19.575C150.523 19.575 151.182 19.3167 151.665 18.8C152.148 18.2833 152.39 17.5583 152.39 16.625V9.05H156.665ZM172.886 15.8C172.886 16.2 172.861 16.6167 172.811 17.05H163.136C163.202 17.9167 163.477 18.5833 163.961 19.05C164.461 19.5 165.069 19.725 165.786 19.725C166.852 19.725 167.594 19.275 168.011 18.375H172.561C172.327 19.2917 171.902 20.1167 171.286 20.85C170.686 21.5833 169.927 22.1583 169.011 22.575C168.094 22.9917 167.069 23.2 165.936 23.2C164.569 23.2 163.352 22.9083 162.286 22.325C161.219 21.7417 160.386 20.9083 159.786 19.825C159.186 18.7417 158.886 17.475 158.886 16.025C158.886 14.575 159.177 13.3083 159.761 12.225C160.361 11.1417 161.194 10.3083 162.261 9.725C163.327 9.14167 164.552 8.85 165.936 8.85C167.286 8.85 168.486 9.13333 169.536 9.7C170.586 10.2667 171.402 11.075 171.986 12.125C172.586 13.175 172.886 14.4 172.886 15.8ZM168.511 14.675C168.511 13.9417 168.261 13.3583 167.761 12.925C167.261 12.4917 166.636 12.275 165.886 12.275C165.169 12.275 164.561 12.4833 164.061 12.9C163.577 13.3167 163.277 13.9083 163.161 14.675H168.511ZM200.464 9.05L196.689 23H191.964L189.764 13.95L187.489 23H182.789L178.989 9.05H183.264L185.239 19.025L187.589 9.05H192.114L194.489 18.975L196.439 9.05H200.464ZM204.244 7.6C203.494 7.6 202.877 7.38333 202.394 6.95C201.927 6.5 201.694 5.95 201.694 5.3C201.694 4.63333 201.927 4.08333 202.394 3.65C202.877 3.2 203.494 2.975 204.244 2.975C204.977 2.975 205.577 3.2 206.044 3.65C206.527 4.08333 206.769 4.63333 206.769 5.3C206.769 5.95 206.527 6.5 206.044 6.95C205.577 7.38333 204.977 7.6 204.244 7.6ZM206.369 9.05V23H202.094V9.05H206.369ZM217.242 19.375V23H215.067C213.517 23 212.309 22.625 211.442 21.875C210.575 21.1083 210.142 19.8667 210.142 18.15V12.6H208.442V9.05H210.142V5.65H214.417V9.05H217.217V12.6H214.417V18.2C214.417 18.6167 214.517 18.9167 214.717 19.1C214.917 19.2833 215.25 19.375 215.717 19.375H217.242ZM228.198 8.9C229.798 8.9 231.082 9.43333 232.048 10.5C233.015 11.55 233.498 13 233.498 14.85V23H229.248V15.425C229.248 14.4917 229.007 13.7667 228.523 13.25C228.04 12.7333 227.39 12.475 226.573 12.475C225.757 12.475 225.107 12.7333 224.623 13.25C224.14 13.7667 223.898 14.4917 223.898 15.425V23H219.623V4.5H223.898V10.925C224.332 10.3083 224.923 9.81667 225.673 9.45C226.423 9.08333 227.265 8.9 228.198 8.9ZM253.417 11C253.1 10.4167 252.642 9.975 252.042 9.675C251.458 9.35833 250.767 9.2 249.967 9.2C248.583 9.2 247.475 9.65833 246.642 10.575C245.808 11.475 245.392 12.6833 245.392 14.2C245.392 15.8167 245.825 17.0833 246.692 18C247.575 18.9 248.783 19.35 250.317 19.35C251.367 19.35 252.25 19.0833 252.967 18.55C253.7 18.0167 254.233 17.25 254.567 16.25H249.142V13.1H258.442V17.075C258.125 18.1417 257.583 19.1333 256.817 20.05C256.067 20.9667 255.108 21.7083 253.942 22.275C252.775 22.8417 251.458 23.125 249.992 23.125C248.258 23.125 246.708 22.75 245.342 22C243.992 21.2333 242.933 20.175 242.167 18.825C241.417 17.475 241.042 15.9333 241.042 14.2C241.042 12.4667 241.417 10.925 242.167 9.575C242.933 8.20833 243.992 7.15 245.342 6.4C246.692 5.63333 248.233 5.25 249.967 5.25C252.067 5.25 253.833 5.75833 255.267 6.775C256.717 7.79167 257.675 9.2 258.142 11H253.417ZM267.16 23.2C265.793 23.2 264.56 22.9083 263.46 22.325C262.376 21.7417 261.518 20.9083 260.885 19.825C260.268 18.7417 259.96 17.475 259.96 16.025C259.96 14.5917 260.276 13.3333 260.91 12.25C261.543 11.15 262.41 10.3083 263.51 9.725C264.61 9.14167 265.843 8.85 267.21 8.85C268.576 8.85 269.81 9.14167 270.91 9.725C272.01 10.3083 272.876 11.15 273.51 12.25C274.143 13.3333 274.46 14.5917 274.46 16.025C274.46 17.4583 274.135 18.725 273.485 19.825C272.851 20.9083 271.976 21.7417 270.86 22.325C269.76 22.9083 268.526 23.2 267.16 23.2ZM267.16 19.5C267.976 19.5 268.668 19.2 269.235 18.6C269.818 18 270.11 17.1417 270.11 16.025C270.11 14.9083 269.826 14.05 269.26 13.45C268.71 12.85 268.026 12.55 267.21 12.55C266.376 12.55 265.685 12.85 265.135 13.45C264.585 14.0333 264.31 14.8917 264.31 16.025C264.31 17.1417 264.576 18 265.11 18.6C265.66 19.2 266.343 19.5 267.16 19.5ZM283.078 23.2C281.711 23.2 280.478 22.9083 279.378 22.325C278.294 21.7417 277.436 20.9083 276.803 19.825C276.186 18.7417 275.878 17.475 275.878 16.025C275.878 14.5917 276.194 13.3333 276.828 12.25C277.461 11.15 278.328 10.3083 279.428 9.725C280.528 9.14167 281.761 8.85 283.128 8.85C284.494 8.85 285.728 9.14167 286.828 9.725C287.928 10.3083 288.794 11.15 289.428 12.25C290.061 13.3333 290.378 14.5917 290.378 16.025C290.378 17.4583 290.053 18.725 289.403 19.825C288.769 20.9083 287.894 21.7417 286.778 22.325C285.678 22.9083 284.444 23.2 283.078 23.2ZM283.078 19.5C283.894 19.5 284.586 19.2 285.153 18.6C285.736 18 286.028 17.1417 286.028 16.025C286.028 14.9083 285.744 14.05 285.178 13.45C284.628 12.85 283.944 12.55 283.128 12.55C282.294 12.55 281.603 12.85 281.053 13.45C280.503 14.0333 280.228 14.8917 280.228 16.025C280.228 17.1417 280.494 18 281.028 18.6C281.578 19.2 282.261 19.5 283.078 19.5ZM297.946 8.85C298.929 8.85 299.787 9.05 300.521 9.45C301.271 9.85 301.846 10.375 302.246 11.025V9.05H306.521V22.975C306.521 24.2583 306.262 25.4167 305.746 26.45C305.246 27.5 304.471 28.3333 303.421 28.95C302.387 29.5667 301.096 29.875 299.546 29.875C297.479 29.875 295.804 29.3833 294.521 28.4C293.237 27.4333 292.504 26.1167 292.321 24.45H296.546C296.679 24.9833 296.996 25.4 297.496 25.7C297.996 26.0167 298.612 26.175 299.346 26.175C300.229 26.175 300.929 25.9167 301.446 25.4C301.979 24.9 302.246 24.0917 302.246 22.975V21C301.829 21.65 301.254 22.1833 300.521 22.6C299.787 23 298.929 23.2 297.946 23.2C296.796 23.2 295.754 22.9083 294.821 22.325C293.887 21.725 293.146 20.8833 292.596 19.8C292.062 18.7 291.796 17.4333 291.796 16C291.796 14.5667 292.062 13.3083 292.596 12.225C293.146 11.1417 293.887 10.3083 294.821 9.725C295.754 9.14167 296.796 8.85 297.946 8.85ZM302.246 16.025C302.246 14.9583 301.946 14.1167 301.346 13.5C300.762 12.8833 300.046 12.575 299.196 12.575C298.346 12.575 297.621 12.8833 297.021 13.5C296.437 14.1 296.146 14.9333 296.146 16C296.146 17.0667 296.437 17.9167 297.021 18.55C297.621 19.1667 298.346 19.475 299.196 19.475C300.046 19.475 300.762 19.1667 301.346 18.55C301.946 17.9333 302.246 17.0917 302.246 16.025ZM313.888 4.5V23H309.613V4.5H313.888ZM330.137 15.8C330.137 16.2 330.112 16.6167 330.062 17.05H320.387C320.453 17.9167 320.728 18.5833 321.212 19.05C321.712 19.5 322.32 19.725 323.037 19.725C324.103 19.725 324.845 19.275 325.262 18.375H329.812C329.578 19.2917 329.153 20.1167 328.537 20.85C327.937 21.5833 327.178 22.1583 326.262 22.575C325.345 22.9917 324.32 23.2 323.187 23.2C321.82 23.2 320.603 22.9083 319.537 22.325C318.47 21.7417 317.637 20.9083 317.037 19.825C316.437 18.7417 316.137 17.475 316.137 16.025C316.137 14.575 316.428 13.3083 317.012 12.225C317.612 11.1417 318.445 10.3083 319.512 9.725C320.578 9.14167 321.803 8.85 323.187 8.85C324.537 8.85 325.737 9.13333 326.787 9.7C327.837 10.2667 328.653 11.075 329.237 12.125C329.837 13.175 330.137 14.4 330.137 15.8ZM325.762 14.675C325.762 13.9417 325.512 13.3583 325.012 12.925C324.512 12.4917 323.887 12.275 323.137 12.275C322.42 12.275 321.812 12.4833 321.312 12.9C320.828 13.3167 320.528 13.9083 320.412 14.675H325.762Z" fill="#5C5C5C"/>
<path d="M15.0001 5.8C17.8168 5.8 19.7168 7.01667 20.8001 8.03333L25.0334 3.9C22.4334 1.48333 19.0501 0 15.0001 0C9.13343 0 4.06676 3.36667 1.6001 8.26667L6.4501 12.0333C7.66676 8.41667 11.0334 5.8 15.0001 5.8V5.8Z" fill="#EA4335"/>
<path d="M29.4 15.3333C29.4 14.0999 29.3 13.1999 29.0833 12.2666H15V17.8333H23.2667C23.1 19.2166 22.2 21.2999 20.2 22.6999L24.9333 26.3666C27.7667 23.7499 29.4 19.8999 29.4 15.3333V15.3333Z" fill="#4285F4"/>
<path d="M6.46667 17.9666C6.15 17.0333 5.96667 16.0333 5.96667 14.9999C5.96667 13.9666 6.15 12.9666 6.45 12.0333L1.6 8.2666C0.583333 10.2999 0 12.5833 0 14.9999C0 17.4166 0.583333 19.6999 1.6 21.7333L6.46667 17.9666V17.9666Z" fill="#FBBC05"/>
<path d="M15.0005 30.0001C19.0505 30.0001 22.4505 28.6668 24.9339 26.3668L20.2005 22.7001C18.9339 23.5835 17.2339 24.2001 15.0005 24.2001C11.0339 24.2001 7.66719 21.5835 6.46719 17.9668L1.61719 21.7335C4.08385 26.6335 9.13385 30.0001 15.0005 30.0001V30.0001Z" fill="#34A853"/>
</svg>
